<?xml version="1.0" encoding="UTF-8" standalone="no"?>
<!DOCTYPE svg PUBLIC "-//W3C//DTD SVG 1.1//EN" "http://www.w3.org/Graphics/SVG/1.1/DTD/svg11.dtd">
<svg xmlns="http://www.w3.org/2000/svg" version="1.1" viewBox="0.00 0.00 189.00 67.00">
<path fill="#ffffff" d="
  M 4.50 0.00
  L 8.31 0.00
  C 11.96 2.03 14.70 8.99 16.08 12.96
  A 0.44 0.44 0.0 0 0 16.92 12.94
  Q 19.07 5.63 24.41 0.00
  L 28.43 0.00
  Q 32.09 11.98 31.91 24.65
  Q 31.90 25.20 31.43 25.47
  Q 29.78 26.44 27.24 25.89
  C 25.01 25.41 25.52 24.56 25.51 22.76
  Q 25.45 15.71 24.42 8.73
  Q 24.29 7.90 23.92 8.66
  Q 20.80 15.05 19.30 22.02
  Q 19.16 22.68 18.49 22.68
  L 14.58 22.67
  Q 13.90 22.67 13.76 22.01
  Q 12.24 15.02 8.97 8.68
  Q 8.49 7.75 8.42 8.79
  L 7.28 24.96
  Q 7.24 25.49 6.74 25.64
  Q 4.33 26.39 1.88 25.75
  A 1.10 1.10 0.0 0 1 1.05 24.70
  Q 0.94 11.96 4.50 0.00
  Z"
/>
<path fill="#ffffff" d="
  M 44.56 0.00
  L 49.21 0.00
  Q 57.77 10.66 57.94 24.73
  Q 57.95 25.30 57.42 25.53
  Q 55.12 26.49 52.65 25.81
  A 1.50 1.50 0.0 0 1 51.56 24.45
  L 51.40 21.67
  Q 51.36 21.00 50.68 21.00
  L 42.84 21.00
  Q 42.18 21.00 42.14 21.65
  L 41.93 24.85
  Q 41.90 25.43 41.34 25.62
  Q 38.97 26.41 36.55 25.76
  Q 35.45 25.46 35.50 24.32
  C 35.76 18.57 38.79 2.87 44.56 0.00
  Z
  M 43.01 14.53
  A 0.90 0.90 0.0 0 0 43.85 15.75
  L 49.59 15.76
  A 0.90 0.90 0.0 0 0 50.44 14.54
  L 47.58 6.98
  A 0.90 0.90 0.0 0 0 45.90 6.98
  L 43.01 14.53
  Z"
/>
<path fill="#ffffff" d="
  M 62.23 0.00
  L 65.56 0.00
  Q 71.53 4.11 75.35 10.42
  Q 76.00 11.49 76.00 10.24
  L 76.00 1.55
  Q 76.00 1.11 76.31 0.80
  Q 76.88 0.24 77.56 0.00
  L 81.56 0.00
  C 83.43 2.16 82.50 20.60 82.49 24.68
  A 1.40 1.39 2.3 0 1 80.98 26.07
  L 77.97 25.81
  Q 77.34 25.76 77.16 25.15
  Q 74.60 16.38 68.63 9.50
  A 0.36 0.36 0.0 0 0 68.00 9.73
  L 68.00 24.92
  Q 68.00 25.35 67.60 25.52
  Q 64.84 26.66 62.20 25.50
  Q 61.69 25.28 61.65 24.72
  Q 60.97 12.29 62.23 0.00
  Z"
/>
<path fill="#ffffff" d="
  M 89.09 0.00
  L 99.56 0.00
  Q 107.86 0.63 109.41 7.80
  C 110.56 13.11 110.32 21.15 105.42 24.19
  C 101.43 26.65 96.10 25.94 91.00 25.90
  C 88.96 25.89 88.54 25.75 88.47 23.54
  Q 88.10 11.73 89.09 0.00
  Z
  M 94.99 5.86
  L 95.01 20.16
  A 0.62 0.62 0.0 0 0 95.63 20.78
  L 98.24 20.77
  A 5.91 5.27 89.9 0 0 103.50 14.85
  L 103.50 11.13
  A 5.91 5.27 89.9 0 0 98.22 5.23
  L 95.61 5.24
  A 0.62 0.62 0.0 0 0 94.99 5.86
  Z"
/>
<path fill="#ffffff" d="
  M 120.56 0.00
  L 125.06 0.00
  C 130.55 2.63 133.73 18.70 134.05 24.27
  A 1.64 1.64 0.0 0 1 132.41 26.00
  L 129.34 26.00
  A 1.78 1.77 87.9 0 1 127.57 24.35
  L 127.39 21.66
  Q 127.34 21.00 126.68 21.00
  L 118.84 21.00
  Q 118.19 21.00 118.15 21.65
  L 117.92 24.70
  Q 117.89 25.17 117.50 25.42
  C 115.78 26.52 111.39 26.80 111.59 23.51
  C 111.94 17.78 114.92 2.81 120.56 0.00
  Z
  M 118.99 14.52
  A 0.90 0.90 0.0 0 0 119.83 15.74
  L 125.61 15.76
  A 0.90 0.90 0.0 0 0 126.45 14.54
  L 123.59 6.97
  A 0.90 0.90 0.0 0 0 121.91 6.96
  L 118.99 14.52
  Z"
/>
<path fill="#ffffff" d="
  M 146.93 12.87
  L 142.62 3.78
  Q 142.37 3.26 142.83 2.91
  L 144.59 1.57
  Q 145.09 1.19 145.56 1.60
  C 149.38 4.90 157.32 12.56 151.70 17.62
  C 148.46 20.54 145.62 23.41 141.94 25.86
  Q 141.51 26.14 141.02 25.99
  Q 139.32 25.48 139.22 23.62
  Q 139.20 23.11 139.57 22.77
  Q 143.89 18.90 146.88 13.92
  Q 147.19 13.41 146.93 12.87
  Z"
/>
<path fill="#ffffff" d="
  M 159.11 1.94
  Q 164.63 6.51 167.09 11.93
  C 168.99 16.08 158.45 23.74 155.52 25.76
  Q 154.26 26.62 152.76 24.55
  Q 152.12 23.66 152.92 22.92
  Q 157.28 18.93 160.31 13.85
  Q 160.59 13.39 160.36 12.90
  L 156.17 4.10
  Q 155.95 3.64 156.16 3.19
  Q 156.69 1.98 158.09 1.69
  Q 158.66 1.57 159.11 1.94
  Z"
/>
<path fill="#ffffff" d="
  M 85.19 67.00
  L 80.19 67.00
  C 65.88 65.99 62.88 51.84 66.12 40.43
  C 68.78 31.08 78.43 28.56 87.02 30.72
  C 95.19 32.78 98.85 43.34 92.00 48.73
  C 87.37 52.36 79.72 52.45 73.83 51.48
  Q 73.26 51.39 73.30 51.97
  C 74.16 62.84 85.31 62.15 92.38 58.32
  Q 92.85 58.07 93.23 58.45
  Q 95.47 60.70 94.51 63.09
  C 93.37 65.94 87.90 66.61 85.19 67.00
  Z
  M 82.84 35.80
  C 76.38 34.51 73.35 39.59 73.15 45.52
  Q 73.13 45.99 73.59 46.08
  Q 78.85 47.13 83.83 45.93
  C 90.38 44.34 88.95 37.02 82.84 35.80
  Z"
/>
<path fill="#ffffff" d="
  M 176.19 67.00
  L 172.94 67.00
  C 168.37 66.43 161.75 66.06 163.81 59.73
  A 1.91 1.90 -67.1 0 1 166.51 58.63
  Q 172.43 61.77 178.86 60.16
  Q 179.35 60.03 179.70 59.66
  C 185.29 53.50 173.73 51.45 170.62 50.32
  C 159.30 46.21 162.18 31.71 173.50 30.26
  C 176.54 29.86 182.49 29.97 185.24 31.43
  C 187.65 32.71 187.26 36.93 185.09 38.02
  Q 184.59 38.27 184.09 38.03
  Q 179.70 35.92 175.08 36.42
  C 169.54 37.01 169.70 42.33 174.81 43.80
  C 180.26 45.37 186.43 46.81 188.30 52.92
  C 190.72 60.84 183.68 66.59 176.19 67.00
  Z"
/>
<path fill="#ffffff" d="
  M 137.78 30.57
  C 154.99 27.61 162.32 38.80 158.89 54.44
  C 156.38 65.87 147.59 66.04 137.92 65.70
  A 0.96 0.96 0.0 0 1 137.00 64.74
  L 137.00 60.74
  A 0.79 0.79 0.0 0 1 137.84 59.95
  C 143.32 60.30 150.14 60.48 151.63 53.57
  Q 153.04 46.97 151.23 41.25
  C 149.40 35.48 142.31 36.01 137.61 36.31
  A 0.57 0.57 0.0 0 1 137.00 35.74
  L 137.00 31.49
  A 0.93 0.93 0.0 0 1 137.78 30.57
  Z"
/>
<path fill="#ffffff" d="
  M 0.76 32.02
  A 0.99 0.98 -1.1 0 1 1.75 31.00
  L 28.80 31.00
  Q 29.45 31.00 29.66 31.62
  Q 30.50 34.13 29.68 36.70
  Q 29.51 37.24 28.93 37.24
  L 19.75 37.25
  Q 19.00 37.25 19.00 38.00
  L 19.00 64.70
  Q 19.00 65.16 18.61 65.40
  C 16.72 66.57 11.70 66.94 11.73 63.36
  Q 11.82 50.55 11.72 37.76
  Q 11.71 37.25 11.21 37.25
  L 1.58 37.24
  Q 0.93 37.24 0.91 36.59
  L 0.76 32.02
  Z"
/>
<path fill="#ffffff" d="
  M 41.00 53.55
  L 41.00 64.56
  Q 41.00 65.11 40.53 65.40
  C 39.09 66.27 35.38 66.39 34.11 65.26
  Q 33.75 64.94 33.75 64.47
  L 33.75 32.23
  A 1.17 1.16 -1.0 0 1 34.88 31.07
  Q 42.56 30.79 50.24 31.23
  C 62.03 31.91 63.81 47.72 51.65 50.60
  Q 50.96 50.77 51.58 51.11
  Q 59.32 55.44 60.81 64.34
  A 1.05 1.04 -14.9 0 1 60.13 65.50
  Q 56.95 66.62 53.71 65.52
  Q 53.16 65.33 53.02 64.77
  C 51.72 59.65 47.96 51.97 41.41 53.07
  Q 41.00 53.13 41.00 53.55
  Z
  M 41.01 37.37
  L 40.99 46.75
  A 0.42 0.42 0.0 0 0 41.41 47.17
  L 47.05 47.18
  A 5.44 4.71 0.1 0 0 52.50 42.48
  L 52.50 41.68
  A 5.44 4.71 0.1 0 0 47.07 36.96
  L 41.43 36.95
  A 0.42 0.42 0.0 0 0 41.01 37.37
  Z"
/>
<path fill="#ffffff" d="
  M 110.58 41.56
  A 0.34 0.34 0.0 0 0 110.00 41.79
  L 110.00 64.56
  A 1.20 1.20 0.0 0 1 109.08 65.73
  Q 106.30 66.38 103.59 65.58
  Q 103.00 65.41 103.00 64.79
  L 103.00 32.46
  Q 103.00 31.95 103.44 31.68
  C 109.65 27.80 119.91 43.45 122.44 47.90
  A 0.30 0.30 0.0 0 0 123.00 47.75
  L 123.00 32.30
  Q 123.00 31.77 123.49 31.57
  Q 126.59 30.28 129.67 31.57
  Q 130.25 31.81 130.25 32.44
  L 130.25 64.72
  Q 130.25 65.28 129.73 65.51
  Q 127.38 66.53 124.84 65.74
  Q 124.30 65.57 124.14 65.03
  Q 120.15 51.66 110.58 41.56
  Z"
/>
</svg>
