<?xml version="1.0" encoding="UTF-8" standalone="no"?>
<!DOCTYPE svg PUBLIC "-//W3C//DTD SVG 1.1//EN" "http://www.w3.org/Graphics/SVG/1.1/DTD/svg11.dtd">
<svg xmlns="http://www.w3.org/2000/svg" version="1.1" viewBox="0.00 0.00 260.00 48.00">
<path fill="#ffffff" d="
  M 137.19 48.00
  L 136.44 48.00
  L 136.31 0.80
  Q 136.31 0.34 136.76 0.25
  Q 137.25 0.15 137.25 0.69
  Q 137.34 14.76 137.19 48.00
  Z"
/>
<path fill="#ffffff" d="
  M 193.52 20.36
  C 186.04 25.14 185.03 8.27 194.31 10.66
  Q 194.86 10.80 194.95 10.24
  L 195.60 6.32
  Q 195.71 5.68 196.36 5.71
  L 199.11 5.85
  Q 199.83 5.89 199.71 6.59
  L 197.56 20.06
  Q 197.46 20.66 196.88 20.83
  Q 195.51 21.23 194.29 20.38
  Q 193.91 20.11 193.52 20.36
  Z
  M 192.6491 17.7970
  A 2.18 1.12 101.4 0 0 194.1779 15.8814
  A 2.18 1.12 101.4 0 0 193.5109 13.5230
  A 2.18 1.12 101.4 0 0 191.9821 15.4386
  A 2.18 1.12 101.4 0 0 192.6491 17.7970
  Z"
/>
<path fill="#ffffff" d="
  M 224.0218 7.9431
  A 1.41 1.41 0.0 0 1 222.6542 9.3943
  L 220.9750 9.4441
  A 1.41 1.41 0.0 0 1 219.5237 8.0766
  L 219.4982 7.2169
  A 1.41 1.41 0.0 0 1 220.8658 5.7657
  L 222.5450 5.7159
  A 1.41 1.41 0.0 0 1 223.9963 7.0834
  L 224.0218 7.9431
  Z"
/>
<path fill="#ffffff" d="
  M 203.89 17.84
  L 207.18 17.29
  Q 207.55 17.22 207.84 17.47
  C 211.08 20.24 204.42 21.29 202.55 20.94
  C 195.99 19.72 199.43 8.19 207.04 10.61
  C 208.86 11.19 209.69 13.05 208.86 14.73
  C 208.04 16.36 205.91 16.81 204.20 17.02
  Q 203.91 17.06 203.81 17.33
  Q 203.76 17.47 203.71 17.63
  Q 203.63 17.88 203.89 17.84
  Z
  M 205.09 13.39
  Q 203.75 13.15 203.73 14.39
  Q 203.73 14.90 204.22 14.83
  Q 204.61 14.77 204.81 14.57
  Q 205.88 13.54 205.09 13.39
  Z"
/>
<path fill="#ffffff" d="
  M 213.04 18.09
  A 0.34 0.34 0.0 0 0 213.27 17.46
  L 210.27 16.18
  Q 209.76 15.96 209.64 15.43
  C 208.70 11.20 212.86 9.26 216.19 10.62
  Q 217.11 11.00 217.40 11.95
  Q 217.86 13.44 216.63 14.01
  Q 216.16 14.24 215.74 13.91
  Q 214.71 13.10 213.52 13.01
  Q 212.46 12.93 213.40 13.42
  L 216.53 15.06
  Q 217.01 15.31 217.14 15.84
  C 218.74 22.32 208.89 22.57 208.75 18.45
  A 1.20 1.20 0.0 0 1 210.29 17.26
  L 213.04 18.09
  Z"
/>
<path fill="#ffffff" d="
  M 228.24 20.79
  C 219.64 23.02 223.62 6.30 230.58 11.09
  Q 230.99 11.37 231.39 11.09
  Q 232.73 10.18 234.17 10.65
  Q 234.74 10.84 234.66 11.44
  C 233.77 17.50 233.59 29.17 223.21 25.05
  Q 222.61 24.81 222.72 24.17
  L 223.03 22.35
  Q 223.14 21.72 223.78 21.76
  C 225.08 21.83 228.03 22.96 228.70 21.32
  Q 228.99 20.59 228.24 20.79
  Z
  M 228.3730 17.8401
  A 2.21 1.11 102.2 0 0 229.9249 15.9146
  A 2.21 1.11 102.2 0 0 229.3070 13.5199
  A 2.21 1.11 102.2 0 0 227.7551 15.4454
  A 2.21 1.11 102.2 0 0 228.3730 17.8401
  Z"
/>
<path fill="#ffffff" d="
  M 240.24 11.03
  Q 242.65 9.67 245.11 11.05
  Q 245.73 11.39 245.65 12.09
  L 244.83 19.98
  Q 244.75 20.75 243.97 20.75
  L 241.29 20.75
  Q 240.71 20.75 240.72 20.17
  C 240.74 19.00 241.57 14.98 241.12 14.29
  A 0.72 0.72 0.0 0 0 239.81 14.54
  L 238.72 20.17
  Q 238.60 20.75 238.02 20.75
  L 235.29 20.75
  Q 234.55 20.75 234.67 20.02
  L 236.06 11.34
  Q 236.15 10.78 236.70 10.61
  Q 238.07 10.21 239.22 10.99
  Q 239.72 11.32 240.24 11.03
  Z"
/>
<path fill="#ffffff" d="
  M 164.04 19.76
  Q 161.20 22.31 158.47 19.78
  Q 158.03 19.38 158.11 18.78
  L 159.06 11.41
  Q 159.14 10.79 159.77 10.74
  L 160.85 10.66
  Q 161.61 10.60 161.50 11.35
  L 160.51 17.99
  A 0.89 0.89 0.0 0 0 161.30 19.01
  C 166.00 19.47 162.96 8.99 166.91 10.88
  Q 167.32 11.08 167.25 11.54
  L 166.24 18.04
  A 0.82 0.82 0.0 0 0 166.92 18.98
  C 170.38 19.55 170.49 13.52 169.92 11.54
  Q 169.74 10.95 170.34 10.79
  L 171.36 10.52
  Q 172.04 10.34 172.23 11.01
  Q 174.15 17.62 168.72 20.68
  Q 166.25 22.08 164.79 19.86
  Q 164.47 19.37 164.04 19.76
  Z"
/>
<path fill="#ffffff" d="
  M 176.39 17.40
  C 176.70 19.89 179.17 18.91 180.72 18.49
  Q 181.26 18.34 181.58 18.78
  C 183.04 20.75 176.74 21.90 174.45 19.37
  Q 174.13 19.01 174.08 18.52
  C 173.66 14.24 175.15 9.91 180.20 10.56
  C 185.40 11.23 181.92 17.11 176.90 16.86
  Q 176.32 16.83 176.39 17.40
  Z
  M 179.58 12.35
  Q 177.54 12.31 176.79 14.19
  Q 176.55 14.78 177.17 14.93
  Q 179.19 15.45 180.33 13.86
  A 0.96 0.95 -71.5 0 0 179.58 12.35
  Z"
/>
<path fill="#ffffff" d="
  M 217.94 20.48
  A 0.25 0.25 0.0 0 1 217.73 20.19
  L 219.09 11.74
  A 1.73 1.64 -80.9 0 1 220.98 10.29
  L 221.83 10.42
  A 1.73 1.64 -80.9 0 1 223.17 12.39
  L 221.82 20.84
  A 0.25 0.25 0.0 0 1 221.53 21.05
  L 217.94 20.48
  Z"
/>
<path fill="#ffffff" d="
  M 56.7553 12.1078
  A 3.35 1.55 -44.6 0 1 55.4583 15.5636
  A 3.35 1.55 -44.6 0 1 51.9847 16.8122
  A 3.35 1.55 -44.6 0 1 53.2817 13.3564
  A 3.35 1.55 -44.6 0 1 56.7553 12.1078
  Z"
/>
<path fill="#ffffff" d="
  M 0.00 35.69
  L 0.00 18.69
  Q 1.16 18.28 2.26 18.52
  Q 2.76 18.63 3.00 19.08
  L 7.23 26.80
  Q 7.52 27.34 7.85 26.82
  Q 10.13 23.22 11.99 19.47
  Q 12.74 17.97 14.83 18.62
  Q 15.25 18.75 15.25 19.19
  L 15.25 35.64
  Q 15.25 36.35 14.54 36.24
  L 12.82 35.97
  Q 12.25 35.89 12.25 35.31
  L 12.25 25.29
  Q 12.25 24.10 11.69 25.14
  L 7.88 32.17
  A 0.33 0.32 -44.7 0 1 7.31 32.17
  L 3.47 25.04
  A 0.42 0.42 0.0 0 0 2.68 25.25
  L 2.92 35.34
  Q 2.94 35.78 2.57 36.03
  Q 1.35 36.83 0.00 35.69
  Z"
/>
<path fill="#ffffff" d="
  M 26.67 31.56
  L 21.92 31.66
  A 0.57 0.57 0.0 0 0 21.39 32.08
  L 20.36 35.82
  A 0.57 0.57 0.0 0 1 19.79 36.24
  L 17.66 36.17
  A 0.57 0.57 0.0 0 1 17.13 35.42
  L 22.69 18.89
  A 0.57 0.57 0.0 0 1 23.23 18.50
  L 25.53 18.50
  A 0.57 0.57 0.0 0 1 26.07 18.89
  L 31.64 35.49
  A 0.57 0.57 0.0 0 1 31.06 36.24
  L 28.86 36.08
  A 0.57 0.57 0.0 0 1 28.36 35.68
  L 27.23 31.96
  A 0.57 0.57 0.0 0 0 26.67 31.56
  Z
  M 22.44 28.45
  A 0.41 0.41 0.0 0 0 22.83 28.98
  L 25.80 29.02
  A 0.41 0.41 0.0 0 0 26.21 28.50
  L 24.79 23.42
  A 0.41 0.41 0.0 0 0 24.00 23.40
  L 22.44 28.45
  Z"
/>
<path fill="#ffffff" d="
  M 43.00 29.54
  L 43.00 19.12
  Q 43.00 18.50 43.62 18.50
  L 45.37 18.50
  Q 46.00 18.50 46.00 19.12
  L 46.00 35.70
  Q 46.00 36.41 45.30 36.28
  L 43.42 35.93
  Q 42.95 35.84 42.72 35.42
  L 37.05 25.16
  A 0.29 0.29 0.0 0 0 36.50 25.30
  L 36.50 35.70
  Q 36.50 36.41 35.80 36.28
  L 34.05 35.95
  Q 33.50 35.85 33.50 35.29
  L 33.50 19.12
  Q 33.50 18.50 34.13 18.50
  L 35.79 18.50
  Q 36.43 18.50 36.73 19.06
  L 42.50 29.67
  Q 43.00 30.58 43.00 29.54
  Z"
/>
<path fill="#ffffff" d="
  M 48.76 18.75
  A 0.25 0.25 0.0 0 1 49.02 18.50
  L 53.19 18.51
  A 8.34 8.16 0.1 0 1 61.51 26.68
  L 61.51 27.90
  A 8.34 8.16 0.1 0 1 53.15 36.05
  L 48.98 36.04
  A 0.25 0.25 0.0 0 1 48.74 35.79
  L 48.76 18.75
  Z
  M 51.73 21.71
  L 51.75 32.87
  A 0.40 0.40 0.0 0 0 52.15 33.27
  L 52.82 33.26
  A 5.71 5.52 -0.1 0 0 58.52 27.73
  L 58.52 26.81
  A 5.71 5.52 -0.1 0 0 52.80 21.30
  L 52.13 21.31
  A 0.40 0.40 0.0 0 0 51.73 21.71
  Z"
/>
<path fill="#ffffff" d="
  M 66.10 31.73
  L 64.88 36.09
  A 0.30 0.30 0.0 0 1 64.54 36.31
  L 61.97 35.89
  A 0.30 0.30 0.0 0 1 61.73 35.49
  L 67.39 18.70
  A 0.30 0.30 0.0 0 1 67.68 18.50
  L 70.33 18.50
  A 0.30 0.30 0.0 0 1 70.61 18.70
  L 76.45 35.89
  A 0.30 0.30 0.0 0 1 76.14 36.29
  L 73.24 36.09
  A 0.30 0.30 0.0 0 1 72.97 35.88
  L 71.81 31.81
  A 0.30 0.30 0.0 0 0 71.53 31.60
  L 66.39 31.51
  A 0.30 0.30 0.0 0 0 66.10 31.73
  Z
  M 68.72 22.98
  L 67.10 28.36
  Q 66.91 29.00 67.58 29.00
  L 70.29 29.00
  Q 71.02 29.00 70.81 28.31
  L 69.22 22.98
  A 0.26 0.26 0.0 0 0 68.72 22.98
  Z"
/>
<path fill="#ffffff" d="
  M 83.42 29.25
  L 82.00 29.25
  Q 81.25 29.25 81.25 30.00
  L 81.25 35.68
  Q 81.25 36.38 80.57 36.27
  L 78.68 35.96
  Q 78.22 35.89 78.22 35.43
  L 78.14 19.11
  A 0.61 0.61 0.0 0 1 78.74 18.50
  C 83.83 18.47 92.61 17.98 89.46 26.51
  Q 89.28 26.97 88.90 27.28
  L 87.42 28.45
  Q 86.99 28.79 87.24 29.28
  L 90.45 35.53
  Q 90.83 36.27 90.00 36.26
  L 87.87 36.23
  Q 87.33 36.22 87.09 35.74
  L 84.16 29.71
  Q 83.93 29.25 83.42 29.25
  Z
  M 81.24 21.51
  L 81.24 26.25
  A 0.27 0.27 0.0 0 0 81.51 26.52
  L 84.02 26.52
  A 2.94 2.45 -0.0 0 0 86.96 24.07
  L 86.96 23.69
  A 2.94 2.45 0.0 0 0 84.02 21.24
  L 81.51 21.24
  A 0.27 0.27 0.0 0 0 81.24 21.51
  Z"
/>
<path fill="#ffffff" d="
  M 93.56 36.22
  L 93.23 36.24
  Q 92.67 36.29 92.67 35.73
  L 92.64 19.06
  Q 92.64 18.50 93.20 18.50
  L 95.25 18.50
  Q 95.75 18.50 95.75 19.00
  L 95.75 35.64
  Q 95.75 36.29 95.11 36.25
  L 94.19 36.21
  Q 93.87 36.19 93.56 36.22
  Z"
/>
<path fill="#ffffff" d="
  M 101.50 25.34
  L 101.50 35.89
  A 0.34 0.34 0.0 0 1 101.15 36.23
  L 98.96 36.17
  A 0.34 0.34 0.0 0 1 98.63 35.83
  L 98.70 18.84
  A 0.34 0.34 0.0 0 1 99.04 18.50
  L 101.35 18.50
  A 0.34 0.34 0.0 0 1 101.65 18.68
  L 107.36 29.21
  A 0.34 0.34 0.0 0 0 108.00 29.05
  L 108.00 18.84
  A 0.34 0.34 0.0 0 1 108.34 18.50
  L 110.66 18.50
  A 0.34 0.34 0.0 0 1 111.00 18.84
  L 111.00 35.99
  A 0.34 0.34 0.0 0 1 110.62 36.33
  L 108.29 36.02
  A 0.34 0.34 0.0 0 1 108.04 35.85
  L 102.14 25.17
  A 0.34 0.34 0.0 0 0 101.50 25.34
  Z"
/>
<path fill="#ffffff" d="
  M 158.93 29.24
  L 158.30 28.72
  Q 157.54 28.10 158.46 27.75
  L 159.35 27.41
  Q 159.83 27.23 159.91 26.71
  C 160.42 23.24 162.77 21.05 166.35 22.83
  Q 167.00 23.15 166.72 23.83
  L 166.52 24.31
  Q 166.29 24.87 165.72 24.68
  L 164.55 24.30
  Q 164.00 24.12 163.50 24.44
  Q 162.28 25.23 162.25 26.71
  Q 162.24 27.24 162.76 27.32
  L 164.32 27.58
  Q 164.75 27.65 164.75 28.08
  L 164.75 28.38
  Q 164.75 28.81 164.32 28.88
  L 162.38 29.20
  Q 161.82 29.29 161.73 29.86
  L 160.65 36.69
  Q 160.55 37.36 159.88 37.42
  L 158.86 37.52
  Q 158.12 37.60 158.23 36.86
  L 159.30 30.19
  Q 159.39 29.61 158.93 29.24
  Z"
/>
<path fill="#ffffff" d="
  M 201.53 30.74
  C 200.13 30.78 199.82 35.53 199.72 36.73
  Q 199.66 37.44 198.95 37.45
  L 195.97 37.51
  Q 195.34 37.52 195.44 36.90
  L 197.66 23.09
  Q 197.75 22.57 198.27 22.55
  L 201.07 22.48
  A 0.75 0.74 -85.8 0 1 201.82 23.35
  L 201.21 26.98
  Q 201.08 27.71 201.76 27.40
  C 208.60 24.26 205.93 34.49 205.44 36.90
  Q 205.31 37.50 204.70 37.50
  L 202.77 37.50
  Q 201.28 37.50 201.50 36.02
  L 202.17 31.46
  Q 202.29 30.72 201.53 30.74
  Z"
/>
<path fill="#ffffff" d="
  M 191.31 30.42
  Q 192.54 31.14 193.93 31.48
  Q 194.41 31.60 194.60 32.06
  C 196.94 37.53 190.67 38.70 186.98 36.88
  Q 186.36 36.58 186.54 35.92
  L 187.01 34.11
  Q 187.22 33.31 187.92 33.76
  Q 189.57 34.80 191.36 34.74
  Q 193.24 34.68 191.41 34.25
  Q 189.63 33.82 188.03 32.85
  Q 187.65 32.62 187.48 32.21
  C 185.52 27.52 191.05 26.45 194.30 27.30
  A 1.24 1.24 0.0 0 1 195.17 28.12
  Q 195.68 29.67 194.60 30.47
  Q 194.11 30.84 193.58 30.54
  Q 192.57 29.99 191.45 29.96
  Q 190.49 29.94 191.31 30.42
  Z"
/>
<path fill="#ffffff" d="
  M 216.5373 28.1804
  A 5.86 5.15 -45.5 0 1 216.1032 35.9697
  A 5.86 5.15 -45.5 0 1 208.3227 36.5396
  A 5.86 5.15 -45.5 0 1 208.7568 28.7503
  A 5.86 5.15 -45.5 0 1 216.5373 28.1804
  Z
  M 212.0318 34.5025
  A 2.24 1.10 100.5 0 0 213.5216 32.5005
  A 2.24 1.10 100.5 0 0 212.8482 30.0975
  A 2.24 1.10 100.5 0 0 211.3584 32.0995
  A 2.24 1.10 100.5 0 0 212.0318 34.5025
  Z"
/>
<path fill="#ffffff" d="
  M 221.97 37.73
  L 221.38 41.50
  Q 221.29 42.13 220.64 42.16
  L 217.73 42.27
  Q 217.08 42.30 217.18 41.65
  L 219.35 28.05
  Q 219.43 27.51 219.94 27.31
  Q 221.30 26.79 222.47 27.62
  Q 222.90 27.93 223.37 27.67
  C 231.39 23.34 231.44 39.59 222.64 37.30
  Q 222.06 37.15 221.97 37.73
  Z
  M 223.4064 34.5213
  A 2.23 1.12 102.0 0 0 224.9655 32.5729
  A 2.23 1.12 102.0 0 0 224.3336 30.1587
  A 2.23 1.12 102.0 0 0 222.7745 32.1071
  A 2.23 1.12 102.0 0 0 223.4064 34.5213
  Z"
/>
<path fill="#ffffff" d="
  M 234.08 37.31
  Q 233.44 37.07 233.32 37.74
  L 232.71 41.47
  Q 232.59 42.22 231.83 42.22
  L 229.15 42.22
  Q 228.40 42.22 228.52 41.47
  L 230.70 27.98
  Q 230.76 27.56 231.17 27.42
  Q 232.65 26.90 233.98 27.61
  Q 234.39 27.83 234.79 27.60
  C 242.95 23.00 242.25 40.35 234.08 37.31
  Z
  M 234.7640 34.5103
  A 2.20 1.10 100.9 0 0 236.2602 32.5580
  A 2.20 1.10 100.9 0 0 235.5960 30.1897
  A 2.20 1.10 100.9 0 0 234.0998 32.1420
  A 2.20 1.10 100.9 0 0 234.7640 34.5103
  Z"
/>
<path fill="#ffffff" d="
  M 245.81 34.50
  L 249.14 33.98
  Q 249.64 33.91 249.90 34.35
  C 252.31 38.51 239.72 40.14 241.10 32.27
  Q 242.06 26.78 247.75 26.95
  C 252.69 27.10 251.85 33.80 246.15 33.45
  Q 245.72 33.43 245.56 33.83
  Q 245.51 33.96 245.47 34.10
  Q 245.32 34.57 245.81 34.50
  Z
  M 246.35 31.46
  Q 247.13 31.06 246.99 30.27
  A 0.52 0.52 0.0 0 0 246.15 29.96
  Q 245.60 30.43 245.74 31.16
  Q 245.84 31.73 246.35 31.46
  Z"
/>
<path fill="#ffffff" d="
  M 260.00 27.56
  L 260.00 29.06
  Q 259.22 31.26 256.66 30.77
  Q 256.05 30.65 255.94 31.26
  L 254.91 36.85
  Q 254.80 37.44 254.20 37.45
  L 251.42 37.51
  Q 250.73 37.52 250.84 36.83
  L 252.14 28.25
  A 1.47 1.46 -69.7 0 1 254.36 27.22
  C 256.77 28.72 258.00 25.71 260.00 27.56
  Z"
/>
<path fill="#ffffff" d="
  M 166.4127 37.2537
  A 5.61 4.61 120.5 0 1 165.2879 30.0802
  A 5.61 4.61 120.5 0 1 172.1073 27.5863
  A 5.61 4.61 120.5 0 1 173.2321 34.7598
  A 5.61 4.61 120.5 0 1 166.4127 37.2537
  Z
  M 168.4084 35.7854
  A 3.52 2.23 104.0 0 0 171.4238 32.9095
  A 3.52 2.23 104.0 0 0 170.1116 28.9546
  A 3.52 2.23 104.0 0 0 167.0962 31.8305
  A 3.52 2.23 104.0 0 0 168.4084 35.7854
  Z"
/>
<path fill="#ffffff" d="
  M 179.23 27.87
  L 181.74 27.13
  Q 182.51 26.91 182.72 27.68
  Q 182.82 28.02 182.76 28.34
  Q 182.67 28.80 182.24 28.97
  L 179.18 30.19
  Q 178.62 30.41 178.52 31.01
  L 177.55 36.88
  Q 177.45 37.50 176.82 37.50
  L 175.82 37.50
  Q 175.13 37.50 175.24 36.82
  L 176.71 27.68
  Q 176.84 26.85 177.57 27.27
  L 178.47 27.78
  Q 178.83 27.99 179.23 27.87
  Z"
/>
</svg>
