<?xml version="1.0" encoding="UTF-8" standalone="no"?>
<!DOCTYPE svg PUBLIC "-//W3C//DTD SVG 1.1//EN" "http://www.w3.org/Graphics/SVG/1.1/DTD/svg11.dtd">
<svg xmlns="http://www.w3.org/2000/svg" version="1.1" viewBox="0.00 0.00 134.00 153.00">
<g stroke-width="2.00" fill="none" stroke-linecap="butt">
<path stroke="#f79661" vector-effect="non-scaling-stroke" d="
  M 108.54 10.50
  Q 104.92 10.06 103.00 12.79"
/>
<path stroke="#ffb15a" vector-effect="non-scaling-stroke" d="
  M 103.00 12.79
  L 100.79 13.00"
/>
<path stroke="#9a724b" vector-effect="non-scaling-stroke" d="
  M 100.79 13.00
  L 100.25 6.71"
/>
<path stroke="#e9d19d" vector-effect="non-scaling-stroke" d="
  M 100.25 6.71
  L 99.96 4.50"
/>
<path stroke="#83808e" vector-effect="non-scaling-stroke" d="
  M 100.25 6.71
  C 98.62 8.27 100.89 20.66 102.96 22.00"
/>
<path stroke="#e9bf9d" vector-effect="non-scaling-stroke" d="
  M 102.96 22.00
  Q 104.07 22.74 103.46 23.75"
/>
<path stroke="#e0a5a3" vector-effect="non-scaling-stroke" d="
  M 93.28 19.49
  L 92.96 18.25"
/>
<path stroke="#db98af" vector-effect="non-scaling-stroke" d="
  M 92.96 18.25
  L 92.54 12.00"
/>
<path stroke="#e0a5a3" vector-effect="non-scaling-stroke" d="
  M 92.54 12.00
  L 92.50 11.54"
/>
<path stroke="#f5986d" vector-effect="non-scaling-stroke" d="
  M 76.29 14.25
  C 74.13 10.64 68.69 12.38 68.96 16.35
  Q 69.00 16.85 68.71 17.27
  Q 66.96 19.86 69.75 21.21"
/>
<path stroke="#e3b194" vector-effect="non-scaling-stroke" d="
  M 69.00 25.29
  Q 61.40 26.81 55.04 31.25"
/>
<path stroke="#9a604b" vector-effect="non-scaling-stroke" d="
  M 100.79 13.00
  L 102.96 22.00"
/>
<path stroke="#f78561" vector-effect="non-scaling-stroke" d="
  M 109.21 15.25
  C 106.75 15.43 102.65 17.68 103.00 12.79"
/>
<path stroke="#e95e73" vector-effect="non-scaling-stroke" d="
  M 92.54 12.00
  Q 91.26 15.30 92.96 18.25"
/>
<path stroke="#f28c7c" vector-effect="non-scaling-stroke" d="
  M 93.00 24.29
  Q 89.78 23.94 88.86 20.83"
/>
<path stroke="#e95e73" vector-effect="non-scaling-stroke" d="
  M 87.36 16.19
  L 87.26 17.28
  Q 87.20 17.94 87.83 17.72
  L 89.64 17.09"
/>
<path stroke="#914652" vector-effect="non-scaling-stroke" d="
  M 89.64 17.09
  Q 90.42 13.14 87.36 16.19"
/>
<path stroke="#8c395d" vector-effect="non-scaling-stroke" d="
  M 89.64 17.09
  Q 88.70 15.91 87.36 16.19"
/>
<path stroke="#e4c6b8" vector-effect="non-scaling-stroke" d="
  M 75.04 25.25
  C 74.36 28.07 70.66 27.65 70.71 25.00"
/>
<path stroke="#e4c6b8" vector-effect="non-scaling-stroke" d="
  M 94.25 27.71
  L 90.54 29.25"
/>
<path stroke="#db98af" vector-effect="non-scaling-stroke" d="
  M 91.05 69.42
  Q 78.15 74.10 65.00 69.96"
/>
<path stroke="#e4c6b8" vector-effect="non-scaling-stroke" d="
  M 46.75 82.46
  L 43.00 88.96"
/>
<path stroke="#ed7f87" vector-effect="non-scaling-stroke" d="
  M 125.29 113.00
  Q 116.61 114.38 108.04 112.50"
/>
<path stroke="#d37d92" stroke-opacity="0.902" vector-effect="non-scaling-stroke" d="
  M 104.71 103.50
  L 101.92 110.93
  Q 101.74 111.42 101.31 111.73
  L 101.00 111.96"
/>
<path stroke="#ed7f87" vector-effect="non-scaling-stroke" d="
  M 101.00 111.96
  Q 93.22 112.17 86.04 109.25"
/>
<path stroke="#d37d92" stroke-opacity="0.902" vector-effect="non-scaling-stroke" d="
  M 86.04 109.25
  L 88.43 95.96
  A 1.32 1.32 0.0 0 0 87.05 94.41
  C 81.53 94.73 67.77 95.07 63.79 90.72"
/>
<path stroke="#ddb09c" stroke-opacity="0.902" vector-effect="non-scaling-stroke" d="
  M 55.50 91.29
  C 54.24 102.42 42.68 93.77 48.02 92.18
  Q 48.50 92.04 48.81 92.44
  Q 48.99 92.66 49.26 92.76
  Q 50.80 93.30 49.44 92.15
  Q 48.04 90.96 46.53 90.91"
/>
<path stroke="#ddb09c" stroke-opacity="0.902" vector-effect="non-scaling-stroke" d="
  M 86.04 109.25
  L 81.21 125.00"
/>
<path stroke="#ddb09c" stroke-opacity="0.902" vector-effect="non-scaling-stroke" d="
  M 98.79 122.00
  L 98.29 120.66
  Q 98.11 120.16 98.36 119.68
  Q 100.28 116.02 101.00 111.96"
/>
<path stroke="#956766" vector-effect="non-scaling-stroke" d="
  M 86.47 149.99
  Q 81.08 149.82 76.89 146.32
  Q 76.49 145.99 75.97 146.00
  L 74.79 146.00"
/>
<path stroke="#956766" vector-effect="non-scaling-stroke" d="
  M 110.54 149.50
  C 107.05 151.09 102.55 147.15 98.96 145.75"
/>
</g>
<path fill="#34213c" d="
  M 116.31 0.00
  L 116.81 0.00
  C 116.83 1.18 111.09 4.14 109.91 4.81
  Q 109.64 4.97 109.39 4.78
  Q 109.18 4.63 109.48 4.30
  Q 109.56 4.20 109.67 4.13
  L 116.31 0.00
  Z"
/>
<path fill="#ffc25a" d="
  M 108.54 10.50
  Q 104.92 10.06 103.00 12.79
  L 100.79 13.00
  L 100.25 6.71
  L 99.96 4.50
  Q 101.02 2.40 103.13 1.92
  Q 103.70 1.79 104.11 2.20
  Q 107.58 5.61 108.54 10.50
  Z"
/>
<path fill="#d2dfdf" d="
  M 99.96 4.50
  L 100.25 6.71
  C 98.62 8.27 100.89 20.66 102.96 22.00
  Q 104.07 22.74 103.46 23.75
  C 100.43 22.18 96.69 19.61 93.28 19.49
  L 92.96 18.25
  L 92.54 12.00
  L 92.50 11.54
  C 95.42 10.18 97.76 6.85 99.96 4.50
  Z"
/>
<path fill="#f48349" d="
  M 76.29 14.25
  C 74.13 10.64 68.69 12.38 68.96 16.35
  Q 69.00 16.85 68.71 17.27
  Q 66.96 19.86 69.75 21.21
  Q 68.05 22.94 69.00 25.29
  Q 61.40 26.81 55.04 31.25
  C 51.25 25.94 54.94 24.28 59.08 22.47
  A 1.36 1.36 0.0 0 0 59.83 20.83
  C 58.33 15.92 54.98 7.77 63.83 7.52
  Q 64.31 7.51 64.72 7.77
  Q 66.21 8.74 67.94 8.78
  Q 68.48 8.79 68.73 8.33
  C 72.52 1.46 81.96 7.53 76.29 14.25
  Z"
/>
<path fill="#34213c" d="
  M 100.25 6.71
  L 100.79 13.00
  L 102.96 22.00
  C 100.89 20.66 98.62 8.27 100.25 6.71
  Z"
/>
<ellipse fill="#34213c" cx="0.00" cy="0.00" transform="translate(118.04,9.51) rotate(-9.1)" rx="4.90" ry="0.51"/>
<path fill="#d2dfdf" d="
  M 0.00 21.19
  L 0.00 18.94
  Q 2.45 12.76 9.15 14.26
  Q 9.67 14.38 9.93 13.90
  C 13.82 6.67 23.57 6.98 27.02 14.35
  Q 27.24 14.82 27.76 14.78
  C 37.06 14.00 38.49 26.67 27.55 26.72
  Q 16.90 26.78 6.24 26.75
  Q 1.39 26.74 0.00 21.19
  Z
  M 7.36 25.78
  C 14.52 26.19 24.74 26.32 30.34 25.65
  C 36.11 24.95 35.76 14.98 27.58 15.81
  Q 27.05 15.87 26.73 15.43
  Q 26.12 14.60 25.60 13.69
  C 22.87 8.92 15.49 8.09 12.04 12.53
  Q 11.10 13.74 10.16 15.07
  Q 9.85 15.51 9.33 15.35
  C 0.00 12.60 -2.72 25.20 7.36 25.78
  Z"
/>
<path fill="#ee6a67" d="
  M 108.54 10.50
  Q 110.84 10.28 112.11 11.78
  Q 112.51 12.26 112.31 12.85
  Q 111.61 14.84 109.21 15.25
  C 106.75 15.43 102.65 17.68 103.00 12.79
  Q 104.92 10.06 108.54 10.50
  Z"
/>
<path fill="#ee6a67" d="
  M 92.50 11.54
  L 92.54 12.00
  Q 91.26 15.30 92.96 18.25
  L 93.28 19.49
  L 93.00 24.29
  Q 89.78 23.94 88.86 20.83
  Q 85.26 18.28 86.17 14.20
  Q 86.29 13.68 86.79 13.51
  L 92.50 11.54
  Z
  M 87.36 16.19
  L 87.26 17.28
  Q 87.20 17.94 87.83 17.72
  L 89.64 17.09
  Q 90.42 13.14 87.36 16.19
  Z"
/>
<path fill="#e4517e" d="
  M 92.54 12.00
  L 92.96 18.25
  Q 91.26 15.30 92.54 12.00
  Z"
/>
<path fill="#f6ad90" d="
  M 76.29 14.25
  C 76.94 16.61 79.19 21.67 74.84 22.10
  Q 74.28 22.16 74.28 22.72
  Q 74.29 24.12 75.04 25.25
  C 74.36 28.07 70.66 27.65 70.71 25.00
  Q 71.00 22.87 69.75 21.21
  Q 66.96 19.86 68.71 17.27
  Q 69.00 16.85 68.96 16.35
  C 68.69 12.38 74.13 10.64 76.29 14.25
  Z"
/>
<path fill="#ff9f5a" d="
  M 103.00 12.79
  C 102.65 17.68 106.75 15.43 109.21 15.25
  Q 110.47 20.54 107.64 24.85
  Q 107.32 25.34 106.73 25.28
  Q 104.88 25.09 103.46 23.75
  Q 104.07 22.74 102.96 22.00
  L 100.79 13.00
  L 103.00 12.79
  Z"
/>
<path fill="#34213c" d="
  M 89.64 17.09
  Q 88.70 15.91 87.36 16.19
  Q 90.42 13.14 89.64 17.09
  Z"
/>
<path fill="#e4517e" d="
  M 87.36 16.19
  Q 88.70 15.91 89.64 17.09
  L 87.83 17.72
  Q 87.20 17.94 87.26 17.28
  L 87.36 16.19
  Z"
/>
<rect fill="#34213c" x="-3.92" y="-0.41" transform="translate(116.69,18.16) rotate(0.9)" width="7.84" height="0.82" rx="0.31"/>
<path fill="#f6ad90" d="
  M 88.86 20.83
  Q 89.78 23.94 93.00 24.29
  L 94.25 27.71
  L 90.54 29.25
  C 89.97 26.28 87.29 23.65 88.86 20.83
  Z"
/>
<path fill="#d2dfdf" d="
  M 70.71 25.00
  C 70.66 27.65 74.36 28.07 75.04 25.25
  C 84.61 25.28 88.41 29.29 92.13 37.54
  Q 95.38 44.75 92.40 37.45
  Q 90.78 33.49 90.54 29.25
  L 94.25 27.71
  C 102.79 27.77 105.43 31.63 106.74 39.50
  C 108.03 47.20 109.70 53.05 108.57 58.81
  C 106.76 68.05 96.42 68.18 90.22 63.51
  Q 89.66 63.09 89.81 63.78
  L 91.05 69.42
  Q 78.15 74.10 65.00 69.96
  Q 66.89 57.42 59.08 47.56
  Q 58.76 47.15 58.31 47.41
  C 52.31 50.83 36.81 62.28 36.26 69.62
  Q 36.22 70.16 36.66 70.47
  C 40.40 73.15 46.76 76.36 46.75 82.46
  L 43.00 88.96
  C 31.88 90.11 22.50 83.99 20.12 73.06
  Q 17.78 62.27 27.20 53.15
  C 36.76 43.89 44.97 38.03 55.04 31.25
  Q 61.40 26.81 69.00 25.29
  L 70.71 25.00
  Z"
/>
<path fill="#bdb4aa" fill-opacity="0.800" d="
  M 45.25 36.00
  Q 45.39 35.10 46.41 34.82
  A 0.30 0.30 0.0 0 1 46.76 35.24
  Q 46.34 36.19 45.25 36.00
  Z"
/>
<path fill="#bdb4aa" fill-opacity="0.800" d="
  M 45.25 36.00
  C 35.61 42.81 29.78 47.15 23.17 55.50
  Q 22.95 55.77 22.75 55.49
  Q 22.60 55.30 22.79 55.05
  Q 31.81 43.24 45.25 36.00
  Z"
/>
<path fill="#bdb4aa" fill-opacity="0.800" d="
  M 109.93 58.26
  C 112.43 52.18 110.28 43.52 108.22 37.76
  Q 108.14 37.54 108.31 37.34
  Q 108.62 36.98 108.76 37.43
  C 111.02 44.50 112.65 51.67 110.67 58.26
  Q 110.57 58.59 110.24 58.49
  Q 110.11 58.46 109.99 58.42
  Q 109.88 58.38 109.93 58.26
  Z"
/>
<path fill="#e4517e" d="
  M 91.05 69.42
  Q 102.81 69.04 114.33 71.50
  C 124.80 73.73 131.60 78.10 130.95 89.51
  Q 130.26 101.38 125.29 113.00
  Q 116.61 114.38 108.04 112.50
  Q 109.78 105.05 110.95 97.50
  C 111.42 94.47 109.97 92.91 106.98 93.00
  Q 106.43 93.02 106.34 93.55
  L 104.71 103.50
  L 101.92 110.93
  Q 101.74 111.42 101.31 111.73
  L 101.00 111.96
  Q 93.22 112.17 86.04 109.25
  L 88.43 95.96
  A 1.32 1.32 0.0 0 0 87.05 94.41
  C 81.53 94.73 67.77 95.07 63.79 90.72
  C 59.05 84.27 61.25 76.33 65.00 69.96
  Q 78.15 74.10 91.05 69.42
  Z"
/>
<path fill="#34213c" d="
  M 133.43 82.68
  Q 133.80 84.83 133.44 86.62
  Q 133.22 87.76 133.23 86.60
  Q 133.26 84.64 133.26 82.69
  Q 133.27 81.74 133.43 82.68
  Z"
/>
<path fill="#f6ad90" d="
  M 46.75 82.46
  Q 51.84 86.16 55.50 91.29
  C 54.24 102.42 42.68 93.77 48.02 92.18
  Q 48.50 92.04 48.81 92.44
  Q 48.99 92.66 49.26 92.76
  Q 50.80 93.30 49.44 92.15
  Q 48.04 90.96 46.53 90.91
  L 43.00 88.96
  L 46.75 82.46
  Z"
/>
<path fill="#bdb4aa" fill-opacity="0.800" d="
  M 46.53 90.91
  Q 48.04 90.96 49.44 92.15
  Q 50.80 93.30 49.26 92.76
  Q 48.99 92.66 48.81 92.44
  Q 48.50 92.04 48.02 92.18
  C 42.68 93.77 54.24 102.42 55.50 91.29
  Q 59.77 91.56 63.79 90.72
  C 67.77 95.07 81.53 94.73 87.05 94.41
  A 1.32 1.32 0.0 0 1 88.43 95.96
  L 86.04 109.25
  L 81.21 125.00
  C 79.32 123.70 77.95 124.42 77.02 126.39
  Q 72.33 136.31 62.29 139.76
  C 58.72 140.99 54.80 140.84 50.86 140.76
  C 40.54 140.55 32.51 133.63 28.96 124.12
  A 1.97 1.97 0.0 0 0 26.73 122.88
  C 6.06 126.99 -2.52 99.43 15.84 92.53
  Q 18.93 91.37 26.16 91.31
  Q 36.34 91.23 46.53 90.91
  Z"
/>
<path fill="#34213c" d="
  M 132.29 102.35
  C 132.87 98.80 133.25 96.39 133.25 92.77
  Q 133.26 90.47 133.48 92.76
  Q 133.94 97.66 132.71 102.44
  A 0.22 0.21 56.9 0 1 132.29 102.35
  Z"
/>
<path fill="#bdb4aa" fill-opacity="0.800" d="
  M 104.71 103.50
  Q 107.95 114.96 98.79 122.00
  L 98.29 120.66
  Q 98.11 120.16 98.36 119.68
  Q 100.28 116.02 101.00 111.96
  L 101.31 111.73
  Q 101.74 111.42 101.92 110.93
  L 104.71 103.50
  Z"
/>
<path fill="#f6ad90" d="
  M 86.04 109.25
  Q 93.22 112.17 101.00 111.96
  Q 100.28 116.02 98.36 119.68
  Q 98.11 120.16 98.29 120.66
  L 98.79 122.00
  C 97.86 122.82 96.93 123.44 96.36 124.60
  Q 91.61 134.34 86.50 143.89
  C 85.32 146.10 85.59 147.82 86.47 149.99
  Q 81.08 149.82 76.89 146.32
  Q 76.49 145.99 75.97 146.00
  L 74.79 146.00
  L 81.21 125.00
  L 86.04 109.25
  Z"
/>
<path fill="#f6ad90" d="
  M 108.04 112.50
  Q 116.61 114.38 125.29 113.00
  Q 118.52 129.74 109.81 145.56
  Q 109.01 147.02 110.54 149.50
  C 107.05 151.09 102.55 147.15 98.96 145.75
  Q 104.04 129.27 108.04 112.50
  Z"
/>
<path fill="#34213c" d="
  M 123.19 123.44
  Q 123.03 123.06 123.29 122.77
  Q 124.28 121.71 123.74 123.02
  Q 122.60 125.85 121.01 128.78
  Q 120.45 129.82 120.79 128.70
  Q 121.67 125.88 123.19 123.44
  Z"
/>
<path fill="#34213c" d="
  M 117.25 135.29
  A 0.22 0.22 0.0 0 1 117.65 135.45
  Q 116.76 138.26 114.57 140.77
  Q 112.83 142.79 114.29 140.56
  Q 115.97 138.00 117.25 135.29
  Z"
/>
<path fill="#34213c" d="
  M 98.96 145.75
  C 102.55 147.15 107.05 151.09 110.54 149.50
  Q 113.32 150.45 114.29 153.00
  L 107.44 153.00
  L 102.86 149.85
  Q 102.39 149.53 101.92 149.85
  L 101.40 150.19
  Q 100.91 150.51 101.19 151.02
  Q 101.81 152.13 100.94 153.00
  L 100.19 153.00
  Q 97.89 149.67 98.96 145.75
  Z"
/>
<path fill="#34213c" d="
  M 74.79 146.00
  L 75.97 146.00
  Q 76.49 145.99 76.89 146.32
  Q 81.08 149.82 86.47 149.99
  Q 89.57 150.18 90.07 153.00
  L 83.44 153.00
  L 78.90 149.99
  Q 78.54 149.75 78.10 149.75
  L 77.78 149.75
  Q 77.04 149.75 77.19 150.48
  Q 77.46 151.82 76.94 153.00
  L 76.19 153.00
  Q 73.86 149.86 74.79 146.00
  Z"
/>
</svg>
